<svg xmlns="http://www.w3.org/2000/svg" viewBox="0 0 36 36" fill="none"><path d="M24.0594 11.25C22.8725 5.7375 20.3413 2.25 18.0002 2.25C15.659 2.25 13.1278 5.7375 11.9409 11.25H24.0594Z" fill="#61C7F2"></path><path d="M11.25 18C11.2497 19.505 11.3501 21.0084 11.5504 22.5H24.4496C24.6499 21.0084 24.7503 19.505 24.75 18C24.7503 16.495 24.6499 14.9916 24.4496 13.5H11.5504C11.3501 14.9916 11.2497 16.495 11.25 18Z" fill="#61C7F2"></path><path d="M11.9409 24.75C13.1278 30.2625 15.659 33.75 18.0002 33.75C20.3413 33.75 22.8725 30.2625 24.0594 24.75H11.9409Z" fill="#61C7F2"></path><path d="M26.3634 11.25H33.4509C32.386 8.82651 30.7679 6.68629 28.7265 5.00103C26.6851 3.31577 24.2772 2.13238 21.6958 1.54578C23.8299 3.4234 25.5039 6.89515 26.3634 11.25Z" fill="#61C7F2"></path><path d="M34.2598 13.5H26.7223C26.9079 14.9928 27.0007 16.4957 27.0002 18C27.0003 19.5043 26.9072 21.0072 26.7212 22.5H34.2587C35.0791 19.5561 35.0791 16.4439 34.2587 13.5H34.2598Z" fill="#61C7F2"></path><path d="M21.6958 34.4542C24.2776 33.868 26.686 32.6847 28.7278 30.9994C30.7696 29.3142 32.388 27.1738 33.4532 24.75H26.3657C25.5039 29.1049 23.8299 32.5766 21.6958 34.4542Z" fill="#61C7F2"></path><path d="M9.63682 24.75H2.54932C3.61446 27.1738 5.23286 29.3142 7.27469 30.9994C9.31652 32.6847 11.7249 33.868 14.3067 34.4542C12.1703 32.5766 10.4963 29.1049 9.63682 24.75Z" fill="#61C7F2"></path><path d="M14.3043 1.54578C11.7225 2.13206 9.31408 3.31531 7.27225 5.00058C5.23042 6.68586 3.61202 8.82625 2.54688 11.25H9.63438C10.4961 6.89515 12.1701 3.4234 14.3043 1.54578Z" fill="#61C7F2"></path><path d="M8.9998 18C8.99965 16.4957 9.09283 14.9928 9.2788 13.5H1.7413C0.92087 16.4439 0.92087 19.5561 1.7413 22.5H9.2788C9.09283 21.0072 8.99965 19.5043 8.9998 18Z" fill="#61C7F2"></path></svg>