<svg xmlns="http://www.w3.org/2000/svg" viewBox="0 0 36 36" fill="none"><g clip-path="url(#clip0_4057_3196)"><path d="M35.3467 25.5645L34.6698 25.2261L19.415 32.8534C18.5394 33.297 17.4606 33.297 16.585 32.8534L1.33024 25.2261L0.653344 25.5645C0.296016 25.7431 0.0703125 26.1083 0.0703125 26.5078C0.0703125 26.9073 0.296016 27.2725 0.653344 27.4511L17.5283 35.8886C17.8252 36.0371 18.1748 36.0371 18.4717 35.8886L35.3467 27.4511C35.704 27.2725 35.9297 26.9073 35.9297 26.5078C35.9297 26.1083 35.704 25.7431 35.3467 25.5645Z" fill="#86D060"></path><path d="M35.3467 20.6426L34.6698 20.3042L19.415 27.9316C18.5394 28.3751 17.4606 28.3751 16.585 27.9316L1.33024 20.3042L0.653344 20.6426C0.296016 20.8212 0.0703125 21.1864 0.0703125 21.5859C0.0703125 21.9854 0.296016 22.3506 0.653344 22.5292L17.5283 30.9667C17.8252 31.1152 18.1748 31.1152 18.4717 30.9667L35.3467 22.5292C35.704 22.3506 35.9297 21.9854 35.9297 21.5859C35.9297 21.1864 35.704 20.8212 35.3467 20.6426Z" fill="#86D060"></path><path d="M8.72497 12.4115L10.8343 16.0651C11.1256 16.5695 11.7706 16.7424 12.2751 16.4511L13.1436 15.9496C13.6703 16.3489 14.2359 16.678 14.836 16.934V17.9297C14.836 18.5122 15.3083 18.9844 15.8907 18.9844H20.1095C20.6919 18.9844 21.1642 18.5122 21.1642 17.9297V16.934C21.7643 16.678 22.3299 16.3489 22.8566 15.9496L23.7251 16.4511C24.2295 16.7423 24.8746 16.5695 25.1658 16.0651L27.2752 12.4115C27.5664 11.9071 27.3936 11.262 26.8892 10.9708L26.0243 10.4714C26.0654 10.143 26.086 9.81563 26.086 9.49219C26.086 9.16875 26.0654 8.84137 26.0244 8.51295L26.8892 8.01359C27.3936 7.72235 27.5665 7.0773 27.2752 6.57288L25.1659 2.9193C24.8746 2.41488 24.2296 2.24198 23.7252 2.53329L22.8566 3.03469C22.3301 2.63545 21.7643 2.30632 21.1642 2.05031V1.05469C21.1642 0.472219 20.6919 0 20.1095 0H15.8907C15.3083 0 14.836 0.472219 14.836 1.05469V2.05031C14.2359 2.30632 13.6701 2.63545 13.1436 3.03469L12.2751 2.53322C11.7707 2.24198 11.1256 2.41481 10.8344 2.91923L8.72504 6.57281C8.43381 7.07723 8.60663 7.72228 9.11106 8.01352L9.9759 8.51287C9.93484 8.84138 9.91417 9.16875 9.91417 9.49219C9.91417 9.81563 9.93484 10.143 9.97583 10.4714L9.11099 10.9708C8.60656 11.262 8.43374 11.9071 8.72497 12.4115ZM18.0001 6.32812C19.7448 6.32812 21.1642 7.74752 21.1642 9.49219C21.1642 11.2369 19.7448 12.6562 18.0001 12.6562C16.2554 12.6562 14.836 11.2369 14.836 9.49219C14.836 7.74752 16.2554 6.32812 18.0001 6.32812Z" fill="#86D060"></path><path d="M0.653344 17.6074L17.5283 26.0449C17.8252 26.1934 18.1748 26.1934 18.4717 26.0449L35.3467 17.6074C35.704 17.4288 35.9297 17.0636 35.9297 16.6641C35.9297 16.2645 35.704 15.8993 35.3467 15.7207L29.4047 12.7498C29.335 12.9949 29.235 13.2355 29.102 13.466L26.9925 17.1197C26.4292 18.0955 25.3788 18.7019 24.2514 18.7019C24.2513 18.7019 24.2514 18.7019 24.2513 18.7019C23.8985 18.7019 23.5486 18.6424 23.2168 18.5275C22.9365 19.9873 21.6497 21.0937 20.1094 21.0937H15.8906C14.3503 21.0937 13.0635 19.9873 12.7832 18.5275C12.4514 18.6424 12.1016 18.7019 11.7487 18.7019C10.6212 18.7019 9.5708 18.0956 9.00738 17.1195L6.89808 13.4662C6.76617 13.2379 6.66457 12.9977 6.59377 12.7506L0.653344 15.7207C0.296016 15.8993 0.0703125 16.2645 0.0703125 16.6641C0.0703125 17.0636 0.296016 17.4288 0.653344 17.6074Z" fill="#86D060"></path></g><defs><clipPath id="clip0_4057_3196"><rect width="36" height="36" fill="white"></rect></clipPath></defs></svg>