<svg xmlns="http://www.w3.org/2000/svg" viewBox="0 0 36 36" fill="none"><g clip-path="url(#clip0_4057_3149)"><path d="M34.9453 0H30.6562C30.0733 0 29.6016 0.471727 29.6016 1.05469V2.10938H20.9698C20.5329 0.884391 19.3732 0 18 0C16.6268 0 15.4671 0.884391 15.0302 2.10938H6.39844V1.05469C6.39844 0.471727 5.92671 0 5.34375 0H1.05469C0.471727 0 0 0.471727 0 1.05469V5.27344C0 5.8564 0.471727 6.32812 1.05469 6.32812H5.34375C5.92671 6.32812 6.39844 5.8564 6.39844 5.27344V4.20469H10.73C7.06971 6.49132 4.65623 10.5075 4.36774 15.0057C3.10226 15.42 2.17969 16.598 2.17969 18C2.17969 19.7447 3.59902 21.1641 5.34375 21.1641C7.08848 21.1641 8.50781 19.7447 8.50781 18C8.50781 16.6542 7.65977 15.51 6.47297 15.0534C6.83283 10.0384 10.3321 5.81147 15.1997 4.60547C15.7261 5.62338 16.7771 6.32812 18 6.32812C19.2229 6.32812 20.2739 5.62338 20.8003 4.60547C25.6679 5.8114 29.1672 10.0383 29.527 15.0533C28.3402 15.51 27.4922 16.6542 27.4922 18C27.4922 19.7447 28.9115 21.1641 30.6562 21.1641C32.401 21.1641 33.8203 19.7447 33.8203 18C33.8203 16.598 32.8977 15.42 31.6323 15.0057C31.3438 10.5075 28.9303 6.50538 25.27 4.21875H29.6016V5.27344C29.6016 5.8564 30.0733 6.32812 30.6562 6.32812H34.9453C35.5283 6.32812 36 5.8564 36 5.27344V1.05469C36 0.471727 35.5283 0 34.9453 0Z" fill="#9F69FA"></path><path d="M25.1752 34.6918C24.6236 33.0037 23.0342 31.7109 21.1639 31.7109H14.8358C12.9655 31.7109 11.3761 33.0037 10.8245 34.6918C10.6118 35.3427 11.1655 36 11.8503 36H24.1494C24.8341 36 25.3879 35.3427 25.1752 34.6918Z" fill="#9F69FA"></path><path d="M27.315 21.6337L19.0547 9.24316V19.2489C20.2797 19.6858 21.1641 20.8455 21.1641 22.2187C21.1641 23.9634 19.7447 25.3828 18 25.3828C16.2553 25.3828 14.8359 23.9634 14.8359 22.2187C14.8359 20.8455 15.7203 19.6858 16.9453 19.2489V9.24316L8.68501 21.6337C8.40587 22.0519 8.46149 22.6091 8.81685 22.9644C10.753 24.9006 11.9907 27.395 12.4683 30.0706C13.201 29.7734 13.9978 29.6015 14.8359 29.6015H21.1641C22.0022 29.6015 22.799 29.7733 23.5317 30.0704C24.0093 27.3947 25.247 24.9006 27.1832 22.9644C27.5385 22.6091 27.5942 22.0519 27.315 21.6337Z" fill="#9F69FA"></path><path d="M18 21.1641C17.4181 21.1641 16.9453 21.6368 16.9453 22.2188C16.9453 22.8007 17.4181 23.2734 18 23.2734C18.5819 23.2734 19.0547 22.8007 19.0547 22.2188C19.0547 21.6368 18.5819 21.1641 18 21.1641Z" fill="#9F69FA"></path></g><defs><clipPath id="clip0_4057_3149"><rect width="36" height="36" fill="white"></rect></clipPath></defs></svg>