<svg xmlns="http://www.w3.org/2000/svg" viewBox="0 0 48 48"><g clip-path="url(#clip0)"><path d="M24.011 0C13.4077 0 4.78125 8.62646 4.78125 19.2297V19.7611C4.78125 25.1235 7.85559 31.3726 13.9193 38.3342C18.3149 43.381 22.6494 46.8999 22.8318 47.0475L24.011 48L25.1898 47.0475C25.3722 46.8999 29.7063 43.381 34.1023 38.3342C40.166 31.3726 43.2404 25.1235 43.2404 19.7611V19.2297C43.2404 8.62646 34.6139 0 24.011 0V0ZM39.4882 19.7611C39.4882 28.8234 27.8115 39.7936 24.011 43.1239C20.209 39.7925 8.53345 28.823 8.53345 19.7611V19.2297C8.53345 10.6952 15.4764 3.7522 24.011 3.7522C32.5452 3.7522 39.4882 10.6952 39.4882 19.2297V19.7611ZM21.6471 22.8113L25.4993 32.4111L33.4845 10.9783L12.0374 18.9445L21.6471 22.8113ZM27.1066 17.35L25.3696 22.0122L24.5332 19.9281L22.437 19.0844L27.1066 17.35Z"></path></g><defs><clipPath id="clip0"><rect width="48" height="48" fill="white"></rect></clipPath></defs></svg>