<svg xmlns="http://www.w3.org/2000/svg" viewBox="0 0 48 48"><path d="M37.8749 13.875C37.8749 6.22447 31.6504 0 24 0C16.3495 0 10.125 6.22447 10.125 13.875C10.125 18.6137 12.5138 22.8046 16.1495 25.3092C12.7547 26.4803 9.64341 28.4153 7.02941 31.0294C2.49645 35.5623 0 41.5894 0 47.9999H3.74999C3.74999 36.8342 12.8342 27.7499 24 27.7499C27.4185 27.7499 30.6408 28.6025 33.468 30.1047C33.658 28.8142 34.1326 27.6141 34.827 26.5682C33.8642 26.0804 32.8692 25.6614 31.8493 25.3095C35.4858 22.8057 37.8749 18.6145 37.8749 13.875ZM13.875 13.875C13.875 8.2921 18.4171 3.74999 24 3.74999C29.5828 3.74999 34.1249 8.2921 34.1249 13.875C34.1249 19.4578 29.5828 24 24 24C18.4171 24 13.875 19.4578 13.875 13.875ZM46.3234 43.5607C45.6986 44.1928 44.9593 44.6612 44.1562 44.9464V47.9999H40.4062V44.9508C39.6064 44.6703 38.8703 44.2104 38.2481 43.59C37.1612 42.506 36.5624 41.0756 36.5624 39.5624V38.8124H40.3124V39.5624C40.3124 40.6233 41.214 41.5194 42.2812 41.5194C43.33 41.5194 44.2499 40.5863 44.2499 39.5225C44.2499 38.7048 43.3505 38.1481 41.4414 37.1572L41.4169 37.1443C39.9169 36.3654 37.1249 34.9156 37.1249 31.374C37.1249 29.2408 38.4876 27.4138 40.4062 26.6788V23.625H44.1562V26.6693C44.7857 26.9047 45.3661 27.2585 45.8642 27.721C46.8786 28.6625 47.4374 29.9377 47.4374 31.3124V31.7812H43.6874V31.3124C43.6874 30.5423 42.9722 30.082 42.2812 30.082C41.5059 30.082 40.8749 30.6617 40.8749 31.374C40.8749 32.3777 41.3418 32.8798 43.1451 33.8162L43.1696 33.829C44.2173 34.3729 45.3006 34.9354 46.1831 35.711C47.3887 36.7704 47.9999 38.0529 47.9999 39.5225C47.9999 41.0331 47.4044 42.4672 46.3234 43.5607Z"></path></svg>