<svg xmlns="http://www.w3.org/2000/svg" viewBox="0 0 48 48"><path d="M37.875 13.875C37.875 6.22449 31.6505 0 24 0C16.3495 0 10.125 6.22449 10.125 13.875C10.125 18.6138 12.5138 22.8047 16.1495 25.3092C12.7548 26.4803 9.64343 28.4154 7.02942 31.0294C2.49646 35.5624 0 41.5895 0 48H3.75C3.75 36.8342 12.8342 27.75 24 27.75C31.6505 27.75 37.875 21.5255 37.875 13.875ZM13.875 13.875C13.875 8.29211 18.4171 3.75 24 3.75C29.5829 3.75 34.125 8.29211 34.125 13.875C34.125 19.4579 29.5829 24 24 24C18.4171 24 13.875 19.4579 13.875 13.875ZM48 27.0938V38.25H44.25V33.7064L33.9404 44.016L28.597 38.696L19.6304 47.9894L16.9318 45.3856L28.5436 33.3508L33.9346 38.7184L41.8092 30.8438H36.75V27.0938H48Z"></path></svg>