<svg xmlns="http://www.w3.org/2000/svg" viewBox="0 0 48 48"><path d="M32.3438 22.6875C25.3652 22.6875 19.6875 28.3652 19.6875 35.3438C19.6875 42.3223 25.3652 48 32.3438 48C39.3223 48 45 42.3223 45 35.3438C45 28.3652 39.3223 22.6875 32.3438 22.6875ZM32.3438 44.25C27.4329 44.25 23.4375 40.2546 23.4375 35.3438C23.4375 30.4329 27.4329 26.4375 32.3438 26.4375C37.2546 26.4375 41.25 30.4329 41.25 35.3438C41.25 40.2546 37.2546 44.25 32.3438 44.25ZM18.5717 44.25H8.625C7.59119 44.25 6.75 43.4088 6.75 42.375V9.375C6.75 8.34119 7.59119 7.5 8.625 7.5H11.7188V14.9062H30.4688V7.5H33.4688C34.5026 7.5 35.3438 8.34119 35.3438 9.375V19.2133C36.6544 19.4564 37.9116 19.8552 39.0938 20.391V9.375C39.0938 6.27319 36.5706 3.75 33.4688 3.75H26.3976C25.6234 1.56738 23.5382 0 21.0938 0C18.6493 0 16.5641 1.56738 15.7899 3.75H8.625C5.52319 3.75 3 6.27319 3 9.375V42.375C3 45.4768 5.52319 48 8.625 48H21.9152C20.6188 46.9299 19.4897 45.6647 18.5717 44.25ZM19.2188 7.5V5.625C19.2188 4.59119 20.0599 3.75 21.0938 3.75C22.1276 3.75 22.9688 4.59119 22.9688 5.625V7.5H26.7188V11.1562H15.4688V7.5H19.2188ZM34.125 33.4688H37.3125V37.2188H30.375V29.0625H34.125V33.4688Z"></path></svg>