<svg xmlns="http://www.w3.org/2000/svg" viewBox="0 0 48 48"><g clip-path="url(#clip0)"><path d="M44.225 47.9732H47.9732C47.9732 41.566 45.4778 35.5425 40.9478 31.0121C38.3352 28.3996 35.2254 26.4656 31.8328 25.2949C35.4664 22.7922 37.8537 18.6035 37.8537 13.8673C37.8537 6.22081 31.6329 0 23.9864 0C16.3403 0 10.1195 6.22081 10.1195 13.8673C10.1195 18.6035 12.5068 22.7918 16.1403 25.2949C12.7478 26.4653 9.63792 28.3996 7.02538 31.0121C2.49499 35.5425 0 41.566 0 47.9732H3.7478C3.7478 41.6542 6.65953 36.0029 11.2112 32.2888C11.7802 33.0889 12.4782 34.0733 13.1184 34.9775L7.15428 42.4807L12.5354 47.9732H17.7824L12.1476 42.2218L17.8015 35.1086L16.9903 33.9612C15.7653 32.228 14.9157 31.029 14.3225 30.1948C16.5662 28.9702 19.0667 28.1594 21.7199 27.862L18.1644 42.1772L23.9864 47.9999L29.8084 42.1772L26.2529 27.862C28.9064 28.1594 31.4066 28.9702 33.6507 30.1948C33.0571 31.029 32.2078 32.228 30.9828 33.9612L30.1717 35.1086L35.8256 42.2218L30.1904 47.9732H35.4374L40.8189 42.4807L34.8548 34.9775C35.4949 34.0733 36.1926 33.0889 36.762 32.2888C41.3133 36.0029 44.225 41.6542 44.225 47.9732ZM13.8673 13.8673C13.8673 8.2877 18.4068 3.74816 23.9864 3.74816C29.5663 3.74816 34.1059 8.2877 34.1059 13.8673C34.1059 19.4472 29.5663 23.9868 23.9864 23.9868C18.4068 23.9868 13.8673 19.4472 13.8673 13.8673ZM23.9864 42.699L22.3125 41.0251L23.9864 34.2853L25.6603 41.0251L23.9864 42.699Z"></path></g><defs><clipPath id="clip0"><rect width="48" height="48" fill="white"></rect></clipPath></defs></svg>